<svg width="77" height="68" viewBox="0 0 77 68" fill="none" xmlns="http://www.w3.org/2000/svg">
<path fill-rule="evenodd" clip-rule="evenodd" d="M53.9037 0.632812C56.0953 0.632812 58.1813 1.31713 59.923 2.55945L60.2938 2.83484L60.7239 2.68268C61.4521 2.43974 62.22 2.26553 63.0149 2.18581L63.4949 2.14952L63.9808 2.13715C64.9424 2.13715 65.8835 2.28742 66.7926 2.60962C68.2389 3.1221 69.4612 4.01482 70.4753 5.1739C71.0466 5.82682 71.5165 6.52395 71.8935 7.22184L72.0959 7.61408L72.2467 7.93832L72.3476 8.18514C72.613 8.8983 72.3537 9.74379 71.7455 10.203L71.5863 10.3094L71.5392 10.3361C71.1428 10.5569 70.5841 10.8123 69.8964 11.0435C68.8394 11.3991 67.7241 11.6083 66.5835 11.6083C66.1026 11.6083 65.6267 11.5707 65.157 11.4928L64.6895 11.4013L64.2952 11.3001L64.2938 11.3852C64.1136 16.7213 59.9127 21.0367 54.6245 21.3982L54.2623 21.4167L53.9049 21.4227C48.4026 21.4227 43.8997 17.149 43.534 11.7395L43.5144 11.3256L43.2257 11.4009C42.9158 11.4709 42.6027 11.5226 42.2869 11.5568L41.8114 11.5951L41.3323 11.6077C40.1029 11.6077 38.9077 11.3656 37.7892 10.9628C37.1162 10.7205 36.6118 10.4753 36.3202 10.3034C35.6079 9.88521 35.2776 8.95675 35.567 8.18465L35.6113 8.0717L35.7369 7.78522L35.9132 7.42585C35.9469 7.36041 35.9828 7.29233 36.0209 7.22181C36.398 6.52391 36.868 5.82678 37.4393 5.17385C38.4535 4.0148 39.676 3.12209 41.1224 2.60963C42.0315 2.28744 42.9726 2.13715 43.9336 2.13715C44.888 2.13715 45.8128 2.28118 46.6894 2.5286L47.1235 2.66074L47.5457 2.8064C49.1145 1.59416 50.9874 0.850535 52.9776 0.673782L53.4388 0.6431L53.9037 0.632812ZM53.9035 4.64643C50.3854 4.64643 47.5214 7.51011 47.5214 11.0285C47.5214 14.547 50.3851 17.4105 53.9035 17.4105C57.422 17.4105 60.2855 14.5468 60.2855 11.0285C60.2855 7.50995 57.4218 4.64643 53.9035 4.64643ZM63.627 6.16194C63.7454 6.15419 63.8635 6.15022 63.9812 6.15022C64.5075 6.15022 65.0005 6.23167 65.4504 6.39182L65.745 6.50935C66.2279 6.72417 66.6701 7.03237 67.0711 7.4143L67.2098 7.55475L66.9364 7.58242C66.8181 7.59014 66.7001 7.5941 66.5826 7.5941C66.0549 7.5941 65.5607 7.51259 65.1101 7.3524L64.8157 7.2349C64.3331 7.0201 63.8908 6.71186 63.4899 6.33012L63.3491 6.18803L63.627 6.16194ZM43.9333 6.15017C43.407 6.15017 42.914 6.23162 42.4625 6.39233C41.864 6.60392 41.3232 6.95623 40.8427 7.41447L40.7031 7.55476L40.9785 7.58299L41.3319 7.59467C41.8595 7.59467 42.353 7.51321 42.8041 7.35265C43.4395 7.12763 44.0123 6.73962 44.5 6.26L44.5682 6.18803L44.2769 6.16129L43.9333 6.15017ZM33.316 11.0289C33.316 5.28735 28.6626 0.633981 22.9211 0.633981C17.1795 0.633981 12.5262 5.28735 12.5262 11.0289C12.5262 16.7701 17.1797 21.4238 22.9211 21.4238C28.6626 21.4238 33.316 16.7705 33.316 11.0289ZM16.5391 11.0289C16.5396 7.51017 19.4029 4.64688 22.9211 4.64688C26.4402 4.64688 29.3031 7.50996 29.3031 11.0289C29.3031 14.5472 26.4396 17.4109 22.9211 17.4109C19.4028 17.4109 16.5391 14.5474 16.5391 11.0289ZM42.1087 15.3317C41.1303 14.4454 39.8626 13.9618 38.5622 13.9624C37.1581 13.9603 35.7898 14.5249 34.7847 15.5543L27.9134 22.5638L27.586 22.8851C27.1373 23.3084 26.6477 23.7049 26.2142 23.9974L26.0417 24.1107L25.8794 24.2099C25.7756 24.2707 25.6813 24.3206 25.6018 24.3566H20.0331L19.9296 24.3119L19.6658 24.1763C19.066 23.8458 18.2265 23.2488 17.5395 22.6437L9.72608 15.7959L9.46845 15.5838C8.50323 14.8378 7.31736 14.4435 6.10196 14.4441C4.60379 14.4434 3.15635 15.0404 2.11129 16.1366L1.85635 16.4212C0.945846 17.5105 0.470153 18.8988 0.466309 20.3468C0.468397 21.6258 0.841467 22.8544 1.57436 23.8649L9.67577 34.99L9.94967 35.38C10.3103 35.9114 10.6474 36.4804 10.9 36.9828C10.9358 37.0542 10.9699 37.1243 11.002 37.1921L11.1668 37.5654L11.2254 37.7193L11.2669 37.8457L11.2753 38.4966L11.3611 41.9928L12.0014 62.4976L12.0247 62.8663C12.1386 64.087 12.6117 65.22 13.3778 66.1117C14.2741 67.1579 15.5382 67.7942 16.8951 67.7953H29.0069L29.3171 67.7834C30.5502 67.6912 31.6812 67.0665 32.4959 66.0933C33.3193 65.1119 33.7952 63.8466 33.8386 62.4977L34.4688 42.3077L34.5016 41.1808L34.551 39.1761L34.5739 37.6349C34.5741 37.6424 34.5757 37.6416 34.5783 37.6346L34.6245 37.4545L34.7275 37.1056C34.9722 36.3478 35.4402 35.2648 35.9246 34.3681L36.9672 32.4322L37.2799 31.8641C37.6029 31.2898 37.9517 30.7061 38.279 30.1918L38.555 29.7651L38.9852 30.4302C39.3397 30.9895 39.7186 31.6153 40.059 32.209L41.8056 35.2547L42.0218 35.6548C42.2301 36.0654 42.4122 36.5015 42.5466 36.9109L42.6078 37.1041L42.6611 37.2933C42.7265 37.5404 42.769 37.7625 42.782 37.902L42.7839 37.958L42.5531 38.6254L42.1741 39.7678L41.5962 41.5746L39.1843 49.4087L39.0361 49.9078C38.8952 50.4006 38.7766 50.8725 38.6842 51.3068L38.5821 51.8382C38.5123 52.2419 38.4799 52.5598 38.4777 52.8828L38.4889 53.163C38.5031 53.3597 38.5335 53.521 38.6021 53.7419C38.7226 54.0828 38.8521 54.3186 39.1081 54.5846C39.2899 54.7706 39.5117 54.9275 39.7589 55.0366L39.9593 55.1133L40.1697 55.1689C40.3121 55.1986 40.4576 55.2136 40.5988 55.2127L44.5832 55.212L44.6045 55.3574L44.6423 55.7371C44.6631 55.9999 44.6745 56.2791 44.6737 56.5593L44.6737 62.4331L44.6867 62.8561C44.7521 63.974 45.0642 65.0078 45.6066 65.8732C45.9496 66.4115 46.3616 66.8526 46.8582 67.1887C47.4301 67.5759 48.1119 67.7974 48.8061 67.7953H59.022L59.3172 67.7839C59.9053 67.7378 60.4768 67.5537 60.9838 67.2541C61.7794 66.7849 62.4045 66.0725 62.839 65.1911C63.2475 64.3571 63.4615 63.4137 63.4615 62.4336V56.5618L63.4653 56.249L63.4775 55.942C63.4883 55.7403 63.5043 55.5456 63.5244 55.3639L63.5437 55.212L67.3327 55.2132L67.5481 55.2019C67.7649 55.1789 67.984 55.1206 68.183 55.03C68.5899 54.8462 68.8998 54.5511 69.1038 54.216C69.2845 53.9111 69.3426 53.7266 69.405 53.4002C69.4346 53.2107 69.4433 53.0748 69.4451 52.8996C69.4414 52.437 69.3799 51.9946 69.2423 51.3189C69.1199 50.7353 68.9526 50.087 68.7497 49.4142L65.9069 40.011L65.8602 39.8326C65.804 39.5801 65.7722 39.2723 65.7722 38.9433C65.7722 38.3867 65.8623 37.7676 66.0246 37.2134C66.1789 36.6827 66.405 36.2042 66.6309 35.9068L75.6685 23.8629L75.8843 23.5533C76.4982 22.6055 76.8113 21.4898 76.8113 20.3382C76.8092 18.7738 76.2388 17.2782 75.1636 16.1746L74.8806 15.9024C73.8596 14.9866 72.5253 14.4927 71.1437 14.4914C69.8093 14.4914 68.5134 14.954 67.5003 15.831L59.6086 22.6513L59.2493 22.9512C58.7584 23.3458 58.2284 23.7142 57.7595 23.9877C57.5034 24.1377 57.2583 24.2618 57.0843 24.3332L57.02 24.3566H51.5186L51.3711 24.2855C50.7852 23.9849 49.8683 23.2757 49.1779 22.5633L42.3471 15.5616L42.1087 15.3317ZM38.3954 17.9914L38.5639 17.9796L38.7331 17.9912C39.0121 18.0279 39.2681 18.1551 39.4789 18.3696L46.3061 25.367L46.6792 25.736C47.3113 26.3405 47.991 26.8894 48.6545 27.3323C49.0759 27.6127 49.4643 27.8346 49.8446 28.0066C50.068 28.1077 50.2782 28.1871 50.4949 28.2491C50.7931 28.331 51.0466 28.3724 51.3404 28.3745L57.1729 28.3745L57.4424 28.3612C57.6161 28.3447 57.7823 28.3132 57.9682 28.2665C58.6316 28.0857 59.2499 27.7852 60.0852 27.2755C60.8142 26.8233 61.5546 26.2782 62.2344 25.6899L70.169 18.83L70.2924 18.7385C70.5152 18.5963 70.8189 18.5074 71.1429 18.5074C71.5793 18.5069 71.9915 18.6725 72.2673 18.9551L72.4152 19.1249C72.6548 19.4429 72.7991 19.8867 72.7976 20.3368C72.7976 20.7679 72.6713 21.1719 72.4587 21.4537L63.4238 33.4951L63.1972 33.8174C62.7604 34.4787 62.4222 35.2402 62.1723 36.0892C61.9009 37.0218 61.7591 37.9954 61.7585 38.946C61.7592 39.7402 61.8574 40.4847 62.0646 41.1743L64.9076 50.5781L65.0856 51.2031L62.2472 51.2033L62.004 51.2162C61.5238 51.2691 61.0844 51.4804 60.7583 51.775C60.5408 51.9668 60.3847 52.1657 60.235 52.4151C60.0595 52.7124 59.9457 52.9926 59.8323 53.3665C59.5777 54.2401 59.4516 55.3218 59.4478 56.5645L59.4478 62.4385L59.4405 62.6402C59.4096 63.0384 59.284 63.4011 59.1187 63.6261L59.0552 63.7063L58.9993 63.7628L58.9645 63.7866L55.9646 63.7851L55.9647 53.6294L55.9556 53.4361C55.8584 52.4187 55.0014 51.6228 53.9582 51.6228L53.765 51.632C52.7477 51.7293 51.9517 52.5866 51.9517 53.6294L51.9512 63.7851H49.0307L48.9901 63.7189C48.9586 63.6659 48.9233 63.5994 48.8917 63.5243C48.7641 63.2285 48.6874 62.8412 48.6874 62.4368V56.565L48.6805 56.1115C48.6543 55.2176 48.5546 54.4042 48.3829 53.711C48.2563 53.2103 48.1207 52.8411 47.9053 52.4657C47.7304 52.1724 47.5573 51.9541 47.301 51.737L47.1296 51.6054C46.7707 51.357 46.3192 51.2001 45.8433 51.2021L42.8422 51.2016L42.9594 50.7923L45.1581 43.6406L45.5727 42.3124L45.9897 41.016L46.3166 40.0266L46.6038 39.2013C46.7455 38.8062 46.7959 38.449 46.7985 38.0156C46.7941 37.2917 46.6472 36.553 46.3595 35.6642C46.0885 34.8447 45.7232 34.0228 45.2866 33.2622L43.5395 30.2168L43.1796 29.6006C42.813 28.9826 42.4304 28.3667 42.0725 27.8181L41.8958 27.5492L41.5675 27.0661L41.4162 26.8527L41.1598 26.5052C41.1212 26.4549 41.0842 26.4078 41.048 26.3629L40.8338 26.1125C40.2666 25.4852 39.4354 25.1351 38.6113 25.1433C37.7144 25.1456 36.854 25.5326 36.2221 26.2047C36.0157 26.4266 35.8341 26.6586 35.5778 27.0167C34.9395 27.9148 34.1216 29.2559 33.4327 30.5351L32.3906 32.4701L32.1128 33.0039C31.75 33.7241 31.4205 34.4719 31.1572 35.1709C30.9911 35.6076 30.8561 36.0171 30.755 36.3941C30.6196 36.9203 30.5659 37.2239 30.561 37.6274L30.5609 37.6946L30.5606 37.7669L30.5157 40.1204L29.8276 62.3764L29.8096 62.5962C29.7606 62.9575 29.6188 63.2879 29.4278 63.5131L29.3289 63.6177C29.2014 63.7385 29.0919 63.7866 29.0095 63.7864L24.9266 63.7851L24.9275 53.6297L24.9183 53.4365C24.8211 52.4191 23.9642 51.6232 22.921 51.6232L22.7278 51.6324C21.7105 51.7297 20.9145 52.587 20.9145 53.6297L20.9133 63.7851L16.8965 63.7864L16.8132 63.7761C16.6973 63.7482 16.5635 63.6619 16.4192 63.4956C16.1859 63.2278 16.0269 62.8134 16.0145 62.3784L15.3854 42.2425L15.329 40.2336L15.2811 37.7387C15.2804 37.4781 15.2505 37.2578 15.1906 36.9931C15.0387 36.3556 14.7706 35.7177 14.328 34.8751C13.9274 34.1224 13.4417 33.3457 12.9217 32.6317L4.82178 21.5083L4.7229 21.3527C4.57052 21.0769 4.48186 20.7232 4.48186 20.3533C4.48013 19.8001 4.68221 19.2562 4.98881 18.9391L5.1407 18.7946C5.40129 18.5808 5.74242 18.4616 6.10314 18.4616C6.47406 18.4616 6.82014 18.5873 7.08015 18.8162L14.8947 25.6646L15.3614 26.0597C15.9917 26.5759 16.6498 27.0467 17.2762 27.4304C17.6864 27.6804 18.0584 27.8786 18.4156 28.0338C18.6171 28.122 18.8138 28.1941 19.0178 28.2534C19.3151 28.3339 19.5476 28.3723 19.8344 28.3743L25.8039 28.3744L26.0938 28.3587C26.2801 28.3391 26.4569 28.3014 26.6526 28.2457C27.0184 28.1358 27.3434 27.9905 27.7355 27.7754C28.7202 27.2229 29.8037 26.3687 30.7791 25.3797L37.6532 18.3652L37.7833 18.2487C37.9638 18.1071 38.1713 18.0208 38.3954 17.9914ZM22.8599 37.7202C23.9027 37.7202 24.76 36.9242 24.8572 35.9069L24.8664 35.7137L24.8572 35.5204C24.76 34.5027 23.9028 33.7066 22.8599 33.7066C21.7514 33.7066 20.8528 34.6052 20.8528 35.7137C20.8528 36.8218 21.7516 37.7202 22.8599 37.7202ZM24.8572 41.7789C24.76 42.7965 23.9028 43.5921 22.8599 43.5921C21.7514 43.5921 20.8528 42.6941 20.8528 41.5856C20.8528 40.4771 21.7514 39.5791 22.8599 39.5791C23.9028 39.5791 24.76 40.3747 24.8572 41.3923L24.8664 41.5856L24.8572 41.7789ZM53.8973 37.7202C54.94 37.7202 55.7973 36.9242 55.8946 35.9069L55.9038 35.7137L55.8946 35.5204C55.7973 34.5027 54.9401 33.7066 53.8973 33.7066C52.7887 33.7066 51.8902 34.6052 51.8902 35.7137C51.8902 36.8218 52.7889 37.7202 53.8973 37.7202ZM55.8946 41.7789C55.7973 42.7965 54.9401 43.5921 53.8973 43.5921C52.7887 43.5921 51.8902 42.6941 51.8902 41.5856C51.8902 40.4771 52.7887 39.5791 53.8973 39.5791C54.9401 39.5791 55.7973 40.3747 55.8946 41.3923L55.9038 41.5856L55.8946 41.7789Z" fill="#5A4097"/>
</svg>
