<svg width="99" height="73" viewBox="0 0 99 73" fill="none" xmlns="http://www.w3.org/2000/svg">
<path fill-rule="evenodd" clip-rule="evenodd" d="M67.2974 4.47553C64.3643 7.99585 64.3643 12.8362 64.5104 16.0619C64.5104 17.2353 65.5376 18.2615 66.71 18.2615C67.8835 18.2615 68.9096 17.2343 68.9096 16.0619C68.9096 12.6887 68.9096 9.46202 70.6694 7.40865C72.869 4.76913 77.4166 5.06171 80.4962 6.38147C81.816 6.9677 84.1629 8.14118 85.0426 10.3418C85.4826 11.369 85.4826 12.6887 85.3363 14.1549C85.3363 15.622 85.19 17.088 84.75 17.9681C83.5766 20.0214 80.3497 20.6076 78.0028 20.315C76.3893 20.1687 75.3632 19.7288 74.9222 19.1415C74.337 18.5553 74.337 17.3828 74.337 16.3556C74.337 14.8885 74.4833 13.4225 75.0705 12.3953C75.5105 11.6617 76.244 11.3681 76.6839 11.5154C76.9776 11.6617 77.2702 12.249 77.2702 12.9825C77.1239 14.0097 76.5366 15.1821 75.9504 16.2092C75.3642 17.2363 75.8041 18.5562 76.8302 19.1423C77.8574 19.7286 79.1772 19.2886 79.7634 18.2625C80.4969 16.9427 81.3768 15.3294 81.5231 13.4224C81.8167 10.9292 80.4959 8.43594 78.4425 7.55618C75.6555 6.2364 72.7224 7.84981 71.2555 10.1957C70.082 12.1027 69.9357 14.3024 69.9357 16.2094C69.9357 17.9691 69.9357 20.0225 71.1092 21.6359C72.2826 23.3956 74.3359 24.4228 77.2692 24.7164C77.4735 24.7164 77.7094 24.748 77.9623 24.7818C78.2541 24.8207 78.5685 24.8627 78.8827 24.8627C82.5494 24.8627 86.5097 23.6893 88.4156 20.1688C89.4428 18.2618 89.5891 16.3557 89.5891 14.3026C89.5891 14.1024 89.5918 13.8913 89.5947 13.6711V13.6705C89.6127 12.2773 89.6353 10.5219 89.0029 8.8761C87.6831 5.35578 84.6036 3.30242 82.1105 2.27626C77.4168 0.222607 70.9641 0.222607 67.2974 4.47553ZM55.6081 44.204C54.3189 44.753 52.8144 44.9727 51.3099 44.9727C49.5903 44.9727 47.7635 44.753 46.0437 44.0946C43.6793 43.2166 41.9597 41.8997 41.0992 39.9245C40.3473 38.2776 40.3473 36.4119 40.4545 35.095C40.5625 32.5701 40.7769 29.9365 42.4965 27.851C42.9268 27.3021 43.5715 26.7531 44.2161 26.3145C44.4304 25.9858 44.7509 25.7673 45.0719 25.5485L45.0759 25.5458C49.2671 23.68 55.3928 22.9115 59.9063 26.5334C60.9813 27.4116 61.7339 28.2897 62.1634 29.2773C62.7298 30.531 62.7159 31.8693 62.7041 32.9946C62.7025 33.1501 62.7009 33.3016 62.7009 33.4482C62.7009 34.4358 62.7009 35.6431 62.3786 36.8504C61.6259 40.1433 59.0474 42.9967 55.6081 44.204ZM50.0022 28.2384C48.1712 28.7385 46.533 29.2385 45.6659 30.3381C44.7026 31.5381 44.6058 33.3372 44.5097 35.2367C44.4129 36.3363 44.4129 37.436 44.8948 38.2345C45.2799 39.1348 46.2439 39.8342 47.6891 40.3342C50.0022 41.2344 52.4113 41.2344 54.3385 40.5343C56.4587 39.8349 58.0967 38.0351 58.5787 36.0359C58.7716 35.2361 58.7716 34.4363 58.7716 33.5367C58.7716 32.6371 58.7716 31.7376 58.4826 31.0375C58.2903 30.5375 57.9045 30.0375 57.3264 29.638C55.4953 28.2384 53.0862 27.6387 50.4841 28.0383C50.4327 28.0651 50.3881 28.0918 50.3468 28.1166C50.2331 28.1848 50.1436 28.2384 50.0022 28.2384ZM28.2043 47.2716C23.9514 41.6979 19.2575 36.2714 14.271 31.1375L14.1247 30.9912C14.5646 29.964 14.1247 28.6442 13.0975 28.058C12.0703 27.6181 10.7506 28.058 10.1644 29.0852L0.631444 50.0583C0.337818 50.6446 0.337818 51.5255 0.777743 52.1117C1.21767 52.6979 1.80492 53.1388 2.53746 53.1388C3.71094 53.2851 4.88439 53.2851 6.05777 53.2851C13.0976 53.2851 20.1385 51.9654 26.8848 50.6456C27.6183 50.4983 28.2056 49.9111 28.4982 49.3248C28.7915 48.5913 28.6442 47.8578 28.2043 47.2716ZM12.2177 35.2453C15.738 39.0584 19.2575 42.8723 22.4842 46.979C17.0577 48.0052 11.4851 48.885 6.05756 48.885L12.2177 35.2453ZM85.1092 65.9762C85.4028 66.1225 85.5491 66.1225 85.8428 66.1225C86.7226 66.1225 87.4562 65.6826 87.8961 64.8027C90.8292 58.3491 94.2023 51.8956 97.869 45.7355C98.309 44.8557 98.309 43.8285 97.7228 43.2423C94.6422 39.722 90.3893 37.6686 86.2826 35.9088C83.3495 34.5891 80.4163 33.4156 77.3358 32.2421C76.6022 31.9485 75.8687 32.0958 75.2825 32.5357C74.6962 32.682 74.109 33.122 73.8154 33.8555C71.1758 40.1618 68.0953 46.3229 64.8685 52.3355C64.135 53.2154 64.4286 54.3889 65.3085 55.1225C71.3221 59.6689 78.0683 63.3357 85.1092 65.9762ZM84.3756 40.0158C87.6023 41.3356 90.8293 42.8028 93.1763 45.0023C90.0957 50.2824 87.31 55.7089 84.6695 61.1364C79.243 58.9368 74.1093 56.1499 69.4164 52.7758C72.2024 47.4957 74.6955 42.2156 77.0424 36.9355L77.1497 36.9797L77.1503 36.9799L77.1504 36.98L77.1506 36.9801L77.1508 36.9802L77.151 36.9803C79.6078 37.9922 82.0627 39.0035 84.3756 40.0158ZM45.6021 57.1506L45.6022 57.1506L45.6022 57.1505C48.2349 54.8105 50.8671 52.471 53.6458 50.2779C54.5268 49.5443 55.9929 49.6917 56.7265 50.5715C57.459 51.5986 57.3127 52.9184 56.2876 53.5036C53.648 55.7031 51.0073 57.9038 48.5141 60.1034C51.4475 63.0365 54.2342 65.9699 56.2876 69.4902C56.8748 70.3702 56.7275 71.5436 55.8476 72.2772C55.4077 72.5708 54.8204 72.7171 54.3805 72.7171C53.7933 72.7171 53.3533 72.4245 52.9134 72.1309L52.1799 71.5447C51.7399 71.251 51.4463 70.6638 51.4463 70.0776C49.8327 67.5842 47.6332 65.3847 45.2863 63.0378L45.2863 63.0378L45.2862 63.0377L45.2862 63.0377L45.065 63.2473L45.0647 63.2476L45.0646 63.2477C42.3604 65.8098 39.7937 68.2417 37.3666 70.8112C36.9267 71.2511 36.3394 71.5447 35.7532 71.5447C35.3133 71.5447 34.726 71.3984 34.2861 70.9585C33.4062 70.0775 33.4062 68.7578 34.2861 67.8779C36.7792 65.2384 39.4187 62.5977 42.2057 60.1045C39.5651 57.3178 37.0718 54.5308 35.4584 51.1577C35.0185 50.1316 35.4584 48.8108 36.4856 48.2245C37.5117 47.7846 38.8325 48.2245 39.4187 49.2517C40.8849 52.1848 43.0855 54.6781 45.5788 57.1713L45.6021 57.1506ZM44.7552 10.9772C45.9286 11.7108 47.102 12.1507 47.9819 12.0044C47.2483 9.65746 45.9286 7.31159 44.3147 5.40476C43.4348 4.37745 43.5821 3.05769 44.4589 1.88523C45.3399 1.15168 46.8059 1.299 47.5395 2.17886C49.7402 4.67197 51.3536 7.75149 52.2334 10.8321C52.3797 11.272 52.6733 12.2981 52.2334 13.4716C51.9398 14.2041 51.3536 15.085 49.8865 15.6712C47.5395 16.551 44.7525 15.9638 42.113 14.2041C41.7952 13.9391 41.4773 13.6933 41.1663 13.4528C40.6165 13.0277 40.0883 12.6193 39.6198 12.1508C39.2018 11.8722 38.8168 11.5605 38.4491 11.2627C38.0429 10.9338 37.6579 10.622 37.2729 10.3911C36.6866 9.95113 36.393 9.95113 36.393 9.95113V10.2448V10.6847C36.5403 11.4172 37.1265 12.1507 37.8601 12.8843L38.1537 13.3242C39.3272 14.4976 40.5007 16.1111 40.5007 18.3107C40.5007 19.9242 39.7671 21.3903 38.4473 22.4174C37.1276 23.4446 35.5141 23.8846 34.047 23.5909C31.8475 23.1509 30.3804 21.3913 29.5005 20.2178L29.0606 19.4842C28.6207 18.7507 28.0334 18.0172 27.4472 17.5772C27.0063 17.2836 26.5663 17.2836 26.42 17.2836C26.42 17.2836 26.2737 17.5772 26.2737 18.4571C26.42 20.0704 26.7137 21.5376 27.4472 22.8574C28.3271 23.0037 29.0606 23.8836 29.0606 24.9107C29.0606 26.0842 28.3281 26.964 27.3009 27.2577C25.9812 27.6976 24.6604 26.8177 24.0742 25.9379C22.7544 23.7373 22.0209 21.2441 21.8746 18.7508V18.3109C21.8746 17.4309 22.0209 15.8176 23.1944 14.4978C25.1016 12.5908 28.0346 12.8844 29.9417 14.2042C31.1107 14.9844 31.8197 15.9934 32.4762 16.9275C32.561 17.0481 32.6448 17.1673 32.7286 17.2847L33.3138 18.0183C34.0474 19.0455 34.6346 19.4854 35.2208 19.6317C35.3652 19.6317 35.6491 19.4902 35.9367 19.3469L35.9544 19.3381C36.248 19.1908 36.3943 18.8981 36.3943 18.6045C36.3943 17.872 35.8071 16.9911 35.2208 16.4049L34.9272 16.1113C33.9011 15.0851 32.8739 13.9116 32.434 12.2982C31.7006 9.95119 32.5814 7.01791 35.221 6.13806C36.6882 5.5508 38.3015 5.99073 39.9149 7.01791C40.9421 7.75042 41.822 8.48397 42.7019 9.21753L42.7153 9.231C43.4426 9.95726 44.0261 10.54 44.7552 10.9772Z" fill="#FFA900"/>
</svg>
