<svg width="70" height="67" viewBox="0 0 70 67" fill="none" xmlns="http://www.w3.org/2000/svg">
<path fill-rule="evenodd" clip-rule="evenodd" d="M14.046 13.088V11.2275C14.0395 8.29945 15.1982 5.48927 17.2665 3.41671C19.3346 1.34415 22.142 0.179688 25.0701 0.179688C27.9974 0.179688 30.8056 1.34415 32.8737 3.41671C34.9412 5.48927 36.0999 8.29945 36.0935 11.2275V13.088C36.0856 17.0204 33.9823 20.651 30.575 22.615C27.1679 24.5791 22.9725 24.5791 19.5647 22.615C16.1575 20.651 14.0548 17.0204 14.0462 13.088H14.046ZM69.1905 33.8909L56.1629 50.3688V50.368C54.9611 51.8946 53.2284 52.9118 51.3103 53.2178C49.3923 53.5231 47.4291 53.0935 45.8126 52.0159L40.4063 48.4111L39.5824 63.9104C39.5364 65.2674 38.4172 66.3407 37.0594 66.3306H36.905C36.2247 66.3083 35.5825 66.0109 35.1263 65.5059C34.6701 65.0009 34.4381 64.3321 34.4848 63.6533L35.5149 43.5713H35.5142C35.5746 42.6446 36.1241 41.82 36.9567 41.4083C37.7893 41.0096 38.772 41.0879 39.5313 41.6145L48.6969 47.742C49.8197 48.4755 51.3175 48.2298 52.1465 47.1752L64.0929 32.0882L63.0628 30.3893L52.7126 41.7689H52.7134C52.24 42.294 51.5661 42.5936 50.8593 42.5928C50.1725 42.5972 49.5095 42.3393 49.0059 41.8716L42.0543 35.1261C40.1184 33.2182 37.5114 32.1464 34.7939 32.1399H16.5655C15.0878 32.15 13.6439 32.5817 12.404 33.3849C11.1634 34.1873 10.1779 35.3272 9.56291 36.6706L5.701 44.9605V44.9612C5.17947 46.1357 5.5954 47.515 6.67941 48.2054L20.0676 56.9076L21.2004 55.8264L20.6344 55.2604C20.6344 55.2101 20.5841 55.1591 20.5338 55.1081L20.5316 55.1059L13.3739 47.6392L13.3731 47.6385C12.5521 46.7657 12.445 45.4396 13.116 44.4462L18.5223 36.3617C18.9159 35.7497 19.5539 35.3373 20.2729 35.2288C20.9676 35.134 21.6716 35.3193 22.2298 35.7439L29.9536 41.8715C30.968 42.7019 31.21 44.1551 30.5204 45.27L25.6802 53.0966L26.7103 54.1267H26.7096C27.6844 55.1669 27.6384 56.799 26.6068 57.7825L22.1789 62.056L22.1782 62.0567C21.3075 62.872 19.9973 62.9985 18.9858 62.3656L14.0937 59.1732L14.3509 63.6012H14.3516C14.4083 64.288 14.1813 64.9675 13.7245 65.4825C13.2676 65.9983 12.6196 66.3043 11.9314 66.3302H11.777C10.4157 66.3266 9.29009 65.2685 9.20237 63.9101L8.73903 55.6711L3.84691 52.5305C2.29955 51.5061 1.16894 49.9623 0.658804 48.1779C0.148774 46.3935 0.293871 44.4855 1.06684 42.7981L4.87708 34.5082C5.90505 32.2705 7.55155 30.3734 9.62337 29.0414C11.6945 27.7095 14.103 26.9977 16.5656 26.9905H34.794C38.8535 26.9977 42.7507 28.586 45.6585 31.4185L50.7049 36.3106L60.1795 25.8577V5.87873C60.1838 4.45852 61.3339 3.30779 62.7541 3.30412C63.4394 3.29693 64.0982 3.56632 64.5823 4.0505C65.0665 4.53467 65.3359 5.1934 65.3287 5.87873V24.2616C65.4645 24.4031 65.5852 24.5583 65.6893 24.725L69.3968 30.9553C69.9535 31.8791 69.8709 33.0529 69.1906 33.8906L69.1905 33.8909ZM22.1376 18.1611C20.3223 17.1151 19.2017 15.1821 19.1952 13.088L19.1953 11.2275C19.191 9.66584 19.8073 8.16736 20.91 7.0618C22.012 5.95625 23.5091 5.33558 25.0701 5.33558C26.631 5.33558 28.1281 5.95625 29.2301 7.0618C30.332 8.16723 30.9491 9.6658 30.9441 11.2275V13.088C30.9384 15.1821 29.817 17.1152 28.0024 18.1611C26.1871 19.2063 23.9529 19.2063 22.1376 18.1611Z" fill="#FFA900"/>
</svg>
