<svg width="90" height="66" viewBox="0 0 90 66" fill="none" xmlns="http://www.w3.org/2000/svg">
<path fill-rule="evenodd" clip-rule="evenodd" d="M89.1103 17.2539C89.2994 17.443 89.4485 17.6673 89.5501 17.9147H89.5499C89.6523 18.1594 89.7052 18.4224 89.7058 18.6874V63.2223C89.7058 63.7591 89.493 64.2742 89.1128 64.6537C88.7332 65.034 88.2181 65.2468 87.6813 65.2468H2.66124C2.12443 65.2468 1.60933 65.034 1.22978 64.6537C0.849547 64.2742 0.636719 63.7591 0.636719 63.2223V18.6874C0.639426 18.1499 0.853607 17.6355 1.23248 17.2539L13.3754 5.11092C13.755 4.73069 14.2701 4.51786 14.8069 4.51786H39.8462L43.8274 0.979118C44.5946 0.298627 45.7481 0.298627 46.5154 0.979118H46.5161L50.4966 4.51786H75.5359C76.0727 4.51786 76.5878 4.73069 76.9673 5.11092L89.1103 17.2539ZM82.7947 16.6635L74.6973 8.56614H55.0521L64.1614 16.6635H82.7947ZM45.1711 5.2016L61.3651 19.5976V61.1967H53.2684V42.9781C53.2684 42.4413 53.0556 41.9262 52.6754 41.5466C52.2958 41.1671 51.7807 40.9536 51.2439 40.9543H39.0982C38.5614 40.9536 38.0463 41.1671 37.6667 41.5466C37.2865 41.9262 37.0737 42.4413 37.0737 42.9781V61.1967H28.977V19.5976L45.1711 5.2016ZM35.2914 8.56614H15.6448L7.5488 16.6635H26.1821L35.2914 8.56614ZM4.68518 20.7119H24.9269V61.197H4.68518V20.7119ZM41.1224 45.003V61.197H49.2191L49.2197 45.003H41.1224ZM85.6573 61.197H65.4138V20.7119H85.6555L85.6573 61.197ZM18.8551 28.8094H10.7584C10.2209 28.8087 9.70581 29.0222 9.32626 29.4018C8.9467 29.7814 8.73388 30.2965 8.73388 30.8333V38.9306C8.73388 39.4674 8.9467 39.9825 9.32626 40.3621C9.70581 40.7423 10.2209 40.9552 10.7584 40.9552H18.8551C19.3926 40.9552 19.9077 40.7423 20.2872 40.3621C20.6668 39.9825 20.8796 39.4674 20.8796 38.9306V30.8333C20.8796 30.2965 20.6668 29.7814 20.2872 29.4018C19.9077 29.0222 19.3926 28.8087 18.8551 28.8094H18.8551ZM16.8306 36.9068L12.7822 36.9061V32.8578H16.8306V36.9068ZM10.7584 45.0031H18.8551C19.3926 45.0032 19.9077 45.216 20.2872 45.5955C20.6668 45.9751 20.8796 46.4902 20.8796 47.0277V55.1244C20.8796 55.6618 20.6668 56.1769 20.2872 56.5565C19.9077 56.9361 19.3926 57.1489 18.8551 57.1489H10.7584C10.2209 57.1489 9.70581 56.9361 9.32626 56.5565C8.9467 56.1769 8.73388 55.6618 8.73388 55.1244V47.0277C8.73388 46.4902 8.9467 45.9751 9.32626 45.5955C9.70581 45.216 10.2209 45.0031 10.7584 45.0031ZM12.7822 53.1005H16.8306V49.0515H12.7822V53.1005ZM71.4877 40.9551H79.5844C80.1219 40.9551 80.637 40.7423 81.0166 40.3621C81.3961 39.9825 81.6089 39.4674 81.6089 38.9306V30.8332C81.6089 30.2964 81.3961 29.7813 81.0166 29.4018C80.637 29.0222 80.1219 28.8087 79.5844 28.8094H71.4877C70.9502 28.8087 70.4352 29.0222 70.0556 29.4018C69.676 29.7813 69.4632 30.2964 69.4632 30.8332V38.9306C69.4632 39.4674 69.676 39.9825 70.0556 40.3621C70.4352 40.7423 70.9502 40.9551 71.4877 40.9551ZM73.5122 32.8578H77.5606V36.9061H73.5115L73.5122 32.8578ZM79.5844 57.1489H71.4877C70.9502 57.1489 70.4352 56.9361 70.0556 56.5565C69.676 56.1769 69.4632 55.6618 69.4632 55.1244V47.0277C69.4632 46.4902 69.676 45.9751 70.0556 45.5955C70.4352 45.216 70.9502 45.0031 71.4877 45.0031H79.5844C80.1219 45.0031 80.637 45.216 81.0166 45.5955C81.3961 45.9751 81.6089 46.4902 81.6089 47.0277V55.1243C81.6089 55.6618 81.3961 56.1769 81.0166 56.5565C80.637 56.936 80.1219 57.1489 79.5844 57.1489ZM77.5606 49.0515H73.5122L73.5115 53.1005L77.5606 53.0998V49.0515ZM45.1714 32.8574C47.3186 32.8574 49.3783 32.0041 50.8972 30.4859C52.4155 28.967 53.2688 26.9079 53.2688 24.76C53.2688 22.6128 52.4155 20.5531 50.8972 19.0349C49.3783 17.516 47.3186 16.6633 45.1714 16.6633C43.0242 16.6633 40.9645 17.516 39.4456 19.0349C37.9273 20.5531 37.074 22.6128 37.074 24.76C37.0767 26.9072 37.9307 28.9649 39.449 30.4831C40.9666 32.0006 43.0249 32.8546 45.1714 32.8574ZM45.1714 20.7117C46.245 20.7117 47.2752 21.138 48.0343 21.8978C48.7934 22.6569 49.2197 23.6865 49.2197 24.76C49.2197 25.8343 48.7934 26.8638 48.0343 27.6229C47.2752 28.382 46.2451 28.809 45.1714 28.809C44.0977 28.809 43.0676 28.382 42.3085 27.6229C41.5494 26.8638 41.1231 25.8342 41.1231 24.76C41.1237 23.6864 41.55 22.6576 42.3092 21.8985C43.0683 21.1394 44.0979 20.7124 45.1714 20.7117Z" fill="#FFA900"/>
</svg>
