<svg width="71" height="70" viewBox="0 0 71 70" fill="none" xmlns="http://www.w3.org/2000/svg">
<path fill-rule="evenodd" clip-rule="evenodd" d="M35.3648 0.46875C54.5304 0.46875 70.0671 16.0054 70.0671 35.171C70.0671 54.3366 54.5304 69.8733 35.3648 69.8733C16.1993 69.8733 0.662598 54.3366 0.662598 35.171C0.662598 16.0054 16.1993 0.46875 35.3648 0.46875ZM52.9453 10.6853L48.6171 12.2472C48.2865 12.3653 47.9384 12.284 47.6954 12.0303L45.893 10.1476C45.6078 9.84936 45.1663 9.79175 44.8138 10.0077L40.4935 12.6462C40.0888 12.8921 39.9576 13.4217 40.1997 13.8294L40.5187 14.3672C40.7366 14.7327 40.6605 15.1927 40.3367 15.4691L36.8543 18.4494C36.5982 18.6673 36.4956 18.9907 36.5754 19.317C36.6568 19.6433 36.8988 19.88 37.2261 19.9545L40.3527 20.6614C40.4785 20.6904 40.5913 20.6904 40.7182 20.6657L45.5948 19.6689C45.895 19.6069 46.1835 19.697 46.3951 19.9192L49.462 23.1289C49.7138 23.3913 49.7743 23.7621 49.6227 24.0918L48.6913 26.1087C48.5383 26.4393 48.2154 26.6334 47.8509 26.6107L34.6033 25.793C34.2315 25.7702 33.9018 25.9731 33.7531 26.3144L32.0916 30.1589C31.9769 30.4257 31.9963 30.7065 32.1478 30.9548L34.6387 35.0399C34.797 35.3013 35.0574 35.45 35.362 35.4562L40.3126 35.5526C40.6985 35.5603 41.0219 35.8072 41.1293 36.1781L42.01 39.2112C42.0177 39.2393 42.024 39.2644 42.0293 39.2935L43.9054 49.3352C43.9848 49.7612 44.3585 50.0595 44.7923 50.042L46.4634 49.9747C46.8081 49.9617 47.0957 49.7612 47.2288 49.4432L51.8542 38.3871C51.8803 38.3252 51.9074 38.2768 51.9452 38.2225L54.3973 34.7436C54.5522 34.5224 54.5958 34.2687 54.5222 34.0083C54.4486 33.7478 54.2791 33.5537 54.0308 33.4476L52.6535 32.8546C52.5179 32.797 52.3887 32.7752 52.2415 32.7873L51.2882 32.8623C50.8738 32.8957 50.502 32.6391 50.3858 32.2388L49.9312 30.6629C49.877 30.4741 49.9506 30.28 50.1166 30.1749C50.2837 30.0708 50.4909 30.0883 50.6371 30.2195C50.8932 30.4494 51.2432 30.5056 51.5622 30.3671L53.7137 29.426C53.9436 29.3253 54.1039 29.1515 54.1866 28.9142C54.268 28.6765 54.2486 28.4413 54.1305 28.22L54.0167 28.0084C53.9451 27.8739 53.8207 27.7935 53.6696 27.7819C53.4082 27.7611 53.1753 27.6236 53.0233 27.3936C52.8335 27.106 52.8272 26.757 53.0083 26.4631L53.4629 25.7205C53.6764 25.3714 54.0918 25.2204 54.4791 25.3506L59.5978 27.0736C59.7561 27.1268 59.8786 27.2101 59.986 27.3384L61.221 28.8121C61.3261 28.937 61.4457 29.0193 61.5996 29.0735L62.1341 29.2614C62.4115 29.3577 62.6057 29.5673 62.6841 29.8515L63.8736 34.2121C63.9636 34.5437 64.2226 34.7805 64.562 34.839L64.8559 34.8889C65.1226 34.9354 65.371 34.8662 65.5748 34.687C65.7786 34.5094 65.8808 34.2726 65.8711 34.0015C65.5143 24.53 60.8415 16.1621 53.7631 10.808C53.5225 10.626 53.2296 10.5814 52.9454 10.6831L52.9453 10.6853ZM24.5758 8.53582L18.621 9.72241L18.6209 9.72047C18.5027 9.74323 18.4049 9.78438 18.3052 9.85167C11.9661 14.1312 7.32047 20.729 5.58436 28.4285C5.5103 28.7582 5.62213 29.0816 5.88453 29.2942L7.69326 30.7562C7.82349 30.8623 7.96097 30.9208 8.128 30.9426L10.9442 31.3038C11.2163 31.3386 11.4375 31.4829 11.5784 31.7182L13.8698 35.5472C14 35.7641 14.1452 36.0744 13.9564 36.2424L12.168 37.8356C12.1067 37.8897 12.1164 37.9755 12.1259 38.0599C12.1285 38.0828 12.1311 38.1056 12.1322 38.1276L12.2232 40.0331C12.2363 40.3207 12.3612 40.585 12.6158 40.7186L18.6867 43.9071C18.9603 44.0504 19.0871 44.3453 19.0794 44.6532L18.9157 51.6241C18.9138 51.734 18.9288 51.827 18.9646 51.9301L21.3853 58.8695C21.5087 59.2244 21.8287 59.4519 22.2039 59.4519H22.7113C23.0429 59.4519 23.3281 59.2782 23.481 58.9833C23.634 58.6885 23.6113 58.3564 23.4205 58.0843L23.4108 58.0712C23.3034 57.9182 23.2525 57.7575 23.2525 57.5711V56.9606C23.2525 56.873 23.2419 56.7994 23.2167 56.7147L22.8522 55.4816C22.8013 55.3102 22.8023 55.15 22.8556 54.9796L23.5183 52.8378C23.5363 52.7778 23.5622 52.7281 23.5904 52.6741C23.5963 52.6628 23.6023 52.6512 23.6084 52.6393L28.2357 43.439L28.2417 43.4269C28.2881 43.3343 28.3285 43.2535 28.3485 43.1514L29.1652 39.0166C29.2562 38.5581 28.9657 38.1078 28.5092 38.0028L26.4236 37.5225C26.2943 37.492 26.1849 37.4475 26.0852 37.3608L21.3116 33.2249C21.1456 33.0821 20.9447 33.0298 20.7258 33.0429L16.59 33.2903C16.2714 33.3097 15.9882 33.1678 15.8125 32.9011L14.7532 31.2841C14.5126 30.9176 14.5818 30.4349 14.9158 30.1498L15.2175 29.8917C15.3099 29.8138 15.3608 29.7131 15.3695 29.5925C15.3782 29.4725 15.3414 29.365 15.261 29.2749L14.8142 28.7676C14.5736 28.4965 14.211 28.403 13.8706 28.5255L11.1174 29.5155C10.8041 29.6283 10.4754 29.5601 10.2314 29.3335L9.3716 28.5299C9.05934 28.2394 9.00416 27.7741 9.23944 27.4173L10.6459 25.2886C10.8182 25.0262 11.0937 24.8863 11.4069 24.8994L14.7915 25.0446C14.9856 25.0533 15.1546 25.0054 15.3163 24.896L24.5147 18.6454C24.8933 18.3883 25.0071 17.8838 24.7762 17.4893L23.7024 15.6578C23.547 15.394 23.2899 15.24 22.9854 15.2294L19.4348 15.1001C19.1942 15.0914 18.9904 14.997 18.8278 14.8203C18.6641 14.6426 18.5881 14.4311 18.6002 14.1905L18.6753 12.6916C18.6937 12.3261 18.9236 12.0235 19.2727 11.9107L22.4795 10.864C22.7506 10.7749 23.0218 10.817 23.2537 10.9831L23.9585 11.4885C24.1614 11.6338 24.3904 11.6836 24.6344 11.6347L25.9149 11.3777C26.2272 11.3162 26.4644 11.108 26.5665 10.8064C26.6687 10.5048 26.6067 10.1949 26.3976 9.95625L25.3978 8.81565C25.1872 8.576 24.8881 8.47385 24.5758 8.53582Z" fill="#E32F81"/>
</svg>
