<svg width="567" height="34" viewBox="0 0 567 34" fill="none" xmlns="http://www.w3.org/2000/svg">
<path fill-rule="evenodd" clip-rule="evenodd" d="M33.021 16.5357L16.5101 0L0 16.5348L16.511 33.0705L33.021 16.5357ZM118.666 0L135.177 16.5357L118.667 33.0705L102.156 16.5348L118.666 0ZM218.488 0L234.999 16.5357L218.489 33.0705L201.978 16.5348L218.488 0ZM417.488 0L433.999 16.5357L417.489 33.0705L400.978 16.5348L417.488 0ZM532.999 16.5357L516.488 0L499.978 16.5348L516.489 33.0705L532.999 16.5357ZM334.177 16.5357L317.666 0L301.156 16.5348L317.667 33.0705L334.177 16.5357ZM185.34 0L201.851 16.5357L185.341 33.0705L168.83 16.5348L185.34 0ZM400.851 16.5357L384.34 0L367.83 16.5348L384.341 33.0705L400.851 16.5357ZM483.34 0L499.851 16.5357L483.341 33.0705L467.052 16.7569L450.762 33.0705L434.251 16.5348L450.762 0L467.051 16.3136L483.34 0ZM168.577 16.5357L152.066 0L135.556 16.5348L152.067 33.0705L168.577 16.5357ZM351.066 0L367.577 16.5357L351.067 33.0705L334.556 16.5348L351.066 0ZM85.3927 0L101.904 16.5357L85.3935 33.0705L68.8826 16.5348L85.3927 0ZM300.904 16.5357L284.393 0L268.077 16.34L251.762 0L235.252 16.5348L251.762 33.0705L268.078 16.7306L284.394 33.0705L300.904 16.5357ZM49.7839 0L66.2948 16.5357L49.7847 33.0705L33.2738 16.5348L49.7839 0ZM566.273 16.5357L549.762 0L533.252 16.5348L549.762 33.0705L566.273 16.5357Z" fill="#ECF6F8"/>
</svg>
