<svg width="145" height="31" viewBox="0 0 145 31" fill="none" xmlns="http://www.w3.org/2000/svg">
<path fill-rule="evenodd" clip-rule="evenodd" d="M107.066 25.5242V5.46875C107.066 2.70733 104.828 0.46875 102.066 0.46875C101.329 0.46875 100.601 0.631732 99.9343 0.946027L78.6609 10.9737C76.1631 12.1511 75.0927 15.1305 76.2701 17.6283C76.7652 18.6787 77.6105 19.524 78.6609 20.0192L99.9343 30.0469C102.432 31.2243 105.411 30.1539 106.589 27.656C106.903 26.9893 107.066 26.2613 107.066 25.5242Z" fill="#E32F81"/>
<path fill-rule="evenodd" clip-rule="evenodd" d="M32.0662 25.5242L32.0662 5.46875C32.0662 2.70733 29.8276 0.46875 27.0662 0.46875C26.329 0.46875 25.601 0.631732 24.9343 0.946027L3.66093 10.9737C1.1631 12.1511 0.0926857 15.1305 1.2701 17.6283C1.76523 18.6787 2.61053 19.524 3.66093 20.0192L24.9343 30.0469C27.4321 31.2243 30.4115 30.1539 31.5889 27.656C31.9032 26.9893 32.0662 26.2613 32.0662 25.5242Z" fill="#FFA900"/>
<path fill-rule="evenodd" clip-rule="evenodd" d="M113.066 5.46993V25.5253C113.066 28.2868 115.305 30.5253 118.066 30.5253C118.803 30.5253 119.531 30.3623 120.198 30.0481L141.472 20.0204C143.969 18.8429 145.04 15.8636 143.862 13.3657C143.367 12.3153 142.522 11.47 141.472 10.9749L120.198 0.947206C117.7 -0.230207 114.721 0.840204 113.544 3.33804C113.229 4.0048 113.066 4.7328 113.066 5.46993Z" fill="#1CA2DA"/>
<path fill-rule="evenodd" clip-rule="evenodd" d="M38.0663 5.46993V25.5253C38.0663 28.2868 40.3049 30.5253 43.0663 30.5253C43.8034 30.5253 44.5314 30.3623 45.1982 30.0481L66.4715 20.0204C68.9694 18.8429 70.0398 15.8636 68.8624 13.3657C68.3672 12.3153 67.5219 11.47 66.4715 10.9749L45.1982 0.947206C42.7004 -0.230207 39.721 0.840204 38.5436 3.33804C38.2293 4.0048 38.0663 4.7328 38.0663 5.46993Z" fill="#5A4097"/>
</svg>
