<svg width="50" height="50" viewBox="0 0 50 50" fill="none" xmlns="http://www.w3.org/2000/svg">
<path fill-rule="evenodd" clip-rule="evenodd" d="M46.1468 3.85324C47.8161 5.52298 48.9122 7.6799 49.2756 10.0126C50.2415 19.9798 50.2415 30.0174 49.2756 39.9849C48.9126 42.3181 47.8171 44.4759 46.1473 46.1458C44.4779 47.8161 42.3206 48.9122 39.9874 49.2756C30.019 50.2415 19.9811 50.2415 10.0126 49.2756C7.67941 48.9121 5.52212 47.8161 3.85275 46.1458C2.18289 44.4759 1.08736 42.3181 0.724386 39.9849C-0.241462 30.0178 -0.241462 19.9802 0.724386 10.0126C1.08788 7.6799 2.18387 5.5231 3.85324 3.85324C5.52298 2.18387 7.6799 1.08783 10.0126 0.724386C19.981 -0.241462 30.0189 -0.241462 39.9874 0.724386C42.3201 1.08788 44.4769 2.18387 46.1468 3.85324ZM25.4274 35.5176L40.314 18.7372L40.3146 18.7458C40.8894 18.1119 41.186 17.2744 41.1398 16.4201C41.0935 15.5659 40.7077 14.7656 40.0676 14.1975C39.428 13.629 38.5876 13.3404 37.7338 13.3953C36.8801 13.4501 36.0836 13.8441 35.5222 14.4894H35.5217L22.9978 28.5921L15.5577 20.3956C14.9939 19.7383 14.1888 19.3372 13.325 19.2833C12.4613 19.2294 11.6123 19.5271 10.9713 20.1085C10.3302 20.6898 9.95201 21.5059 9.92196 22.3711C9.89191 23.2358 10.2129 24.0762 10.812 24.7011L20.6559 35.5343C21.2635 36.2039 22.1259 36.586 23.0297 36.586H23.0469C23.9559 36.5831 24.8211 36.1949 25.4274 35.5176Z" fill="#1CA2DA"/>
</svg>
