<svg width="25" height="21" viewBox="0 0 25 21" fill="none" xmlns="http://www.w3.org/2000/svg">
<path fill-rule="evenodd" clip-rule="evenodd" d="M1.16709 8.69323L23.3121 0.138855C24.3236 -0.32089 25.2998 0.382318 24.9137 1.93262L21.1426 19.7307C20.8793 20.9956 20.116 21.2982 19.0588 20.7141L13.3138 16.4629L13.2081 16.5659C11.9019 17.8378 10.7507 18.9588 10.5525 19.1531C10.5454 19.16 10.5383 19.1669 10.5313 19.1738C10.221 19.4777 9.96474 19.7286 9.4028 19.7286C8.81947 19.7286 8.77081 19.5557 8.65361 19.1395C8.62119 19.0243 8.58354 18.8906 8.52788 18.7367L6.41464 12.2478L0.891594 10.5213C-0.335383 10.1449 -0.344347 9.30057 1.16709 8.69323ZM19.7304 3.98508L7.28141 11.8512L9.3792 18.2923L9.79425 13.8587L20.4538 4.22649C20.9217 3.81056 20.3518 3.60762 19.7304 3.98508Z" fill="#64A9DC"/>
<path fill-rule="evenodd" clip-rule="evenodd" d="M1.16709 8.69323L23.3121 0.138855C24.3236 -0.32089 25.2998 0.382318 24.9137 1.93262L21.1426 19.7307C20.8793 20.9956 20.116 21.2982 19.0588 20.7141L13.3138 16.4629L13.2081 16.5659C11.9019 17.8378 10.7507 18.9588 10.5525 19.1531C10.5454 19.16 10.5383 19.1669 10.5313 19.1738C10.221 19.4777 9.96474 19.7286 9.4028 19.7286C8.81947 19.7286 8.77081 19.5557 8.65361 19.1395C8.62119 19.0243 8.58354 18.8906 8.52788 18.7367L6.41464 12.2478L0.891594 10.5213C-0.335383 10.1449 -0.344347 9.30057 1.16709 8.69323ZM19.7304 3.98508L7.28141 11.8512L9.3792 18.2923L9.79425 13.8587L20.4538 4.22649C20.9217 3.81056 20.3518 3.60762 19.7304 3.98508Z" fill="white" fill-opacity="0.344223"/>
</svg>
