<svg width="265" height="132" viewBox="0 0 265 132" fill="none" xmlns="http://www.w3.org/2000/svg">
<path opacity="0.146198" fill-rule="evenodd" clip-rule="evenodd" d="M132.469 0C205.035 0 264.069 59.035 264.069 131.6C264.069 204.165 205.034 263.2 132.469 263.2C59.9036 263.2 0.868591 204.165 0.868591 131.6C0.868591 59.035 59.9036 0 132.469 0ZM132.469 235.2C189.594 235.2 236.069 188.727 236.069 131.6C236.069 74.475 189.592 28 132.469 28C75.3456 28 28.8686 74.477 28.8686 131.6C28.8686 188.723 75.3456 235.2 132.469 235.2ZM146.469 55.54C146.469 47.8056 140.203 41.54 132.469 41.54L132.469 41.5402C124.734 41.5402 118.469 47.8058 118.469 55.5402V131.599C118.469 137.24 121.851 142.322 127.043 144.509C128.797 145.251 130.641 145.603 132.465 145.603C136.066 145.603 139.594 144.216 142.266 141.603L187.536 97.275C193.055 91.865 193.153 83.0014 187.743 77.478C182.337 71.9585 173.469 71.8569 167.946 77.271L146.469 98.298V55.54Z" fill="#8F0000" fill-opacity="0.709657"/>
</svg>
