<svg width="20" height="20" viewBox="0 0 20 20" fill="none" xmlns="http://www.w3.org/2000/svg">
<path fill-rule="evenodd" clip-rule="evenodd" d="M15.4139 3.28748C15.4139 3.80465 15.0725 4.23433 14.6345 4.23433H14.1932C13.7552 4.23433 13.4139 3.80462 13.4139 3.28748V0.935131C13.4139 0.419495 13.7552 0 14.1932 0H14.6345C15.0725 0 15.4139 0.419495 15.4139 0.935131V3.28748ZM5.36364 4.23433C5.79416 4.23433 6.14063 3.80465 6.14063 3.28748V0.93556C6.14063 0.419531 5.79413 3.57138e-05 5.36364 3.57138e-05H4.92974C4.49921 3.57138e-05 4.14063 0.419531 4.14063 0.93556V3.28791C4.14063 3.80465 4.49921 4.23433 4.92974 4.23433H5.36364ZM17.3826 1.48445V4.28755C17.3826 5.2044 16.6795 5.9375 15.7967 5.9375H13.2967C12.4139 5.9375 11.7108 5.20465 11.7108 4.28755V1.48445H8.14834V4.28755C8.14834 5.2044 7.43238 5.9375 6.54986 5.9375H4.04987C3.16791 5.9375 2.43746 5.20465 2.43746 4.28755V1.48445H1.20006C0.539922 1.48445 0 2.06062 0 2.74657V18.7528C0 19.4386 0.539886 20 1.20006 20H18.7998C19.46 20 19.9999 19.4386 19.9999 18.7528V2.74657C19.9999 2.06062 19.46 1.48445 18.7998 1.48445H17.3826ZM6.24992 15.7028C6.24992 16.0965 6.09353 16.474 5.81521 16.7525C5.53676 17.0308 5.15926 17.1872 4.76555 17.1872H4.2187C3.82502 17.1872 3.44749 17.0308 3.16903 16.7525C2.89071 16.474 2.73432 16.0965 2.73432 15.7028C2.73432 15.3091 2.89071 14.9316 3.16903 14.6532C3.44749 14.3749 3.82499 14.2185 4.2187 14.2185H4.76555C5.15922 14.2185 5.53675 14.3749 5.81521 14.6532C6.09353 14.9316 6.24992 15.3091 6.24992 15.7028ZM5.81521 11.7915C6.09353 11.513 6.24992 11.1355 6.24992 10.7418C6.24992 10.3481 6.09353 9.97062 5.81521 9.69216C5.53675 9.41384 5.15922 9.25746 4.76555 9.25746H4.2187C3.82499 9.25746 3.44749 9.41385 3.16903 9.69216C2.89071 9.97062 2.73432 10.3481 2.73432 10.7418C2.73432 11.1355 2.89071 11.513 3.16903 11.7915C3.44749 12.0698 3.82502 12.2262 4.2187 12.2262H4.76555C5.15926 12.2262 5.53676 12.0698 5.81521 11.7915ZM11.7577 15.7028C11.7577 16.0965 11.6013 16.474 11.323 16.7525C11.0445 17.0308 10.667 17.1872 10.2733 17.1872H9.72649C9.33281 17.1872 8.95528 17.0308 8.67682 16.7525C8.3985 16.474 8.24211 16.0965 8.24211 15.7028C8.24211 15.3091 8.3985 14.9316 8.67682 14.6532C8.95528 14.3749 9.33278 14.2185 9.72649 14.2185H10.2733C10.667 14.2185 11.0445 14.3749 11.323 14.6532C11.6013 14.9316 11.7577 15.3091 11.7577 15.7028ZM11.323 11.7915C11.6013 11.513 11.7577 11.1355 11.7577 10.7418C11.7577 10.3481 11.6013 9.97062 11.323 9.69216C11.0445 9.41384 10.667 9.25746 10.2733 9.25746H9.72649C9.33278 9.25746 8.95528 9.41385 8.67682 9.69216C8.3985 9.97062 8.24211 10.3481 8.24211 10.7418C8.24211 11.1355 8.3985 11.513 8.67682 11.7915C8.95528 12.0698 9.33281 12.2262 9.72649 12.2262H10.2733C10.667 12.2262 11.0445 12.0698 11.323 11.7915ZM17.3826 15.7028C17.3826 16.0965 17.2263 16.474 16.9479 16.7525C16.6695 17.0308 16.292 17.1872 15.8983 17.1872H15.3514C14.9577 17.1872 14.5802 17.0308 14.3017 16.7525C14.0234 16.474 13.867 16.0965 13.867 15.7028C13.867 15.3091 14.0234 14.9316 14.3017 14.6532C14.5802 14.3749 14.9577 14.2185 15.3514 14.2185H15.8983C16.2919 14.2185 16.6695 14.3749 16.9479 14.6532C17.2262 14.9316 17.3826 15.3091 17.3826 15.7028ZM16.9479 11.7915C17.2263 11.513 17.3826 11.1355 17.3826 10.7418C17.3826 10.3481 17.2262 9.97062 16.9479 9.69216C16.6695 9.41384 16.2919 9.25746 15.8983 9.25746H15.3514C14.9577 9.25746 14.5802 9.41385 14.3017 9.69216C14.0234 9.97062 13.867 10.3481 13.867 10.7418C13.867 11.1355 14.0234 11.513 14.3017 11.7915C14.5802 12.0698 14.9577 12.2262 15.3514 12.2262H15.8983C16.292 12.2262 16.6695 12.0698 16.9479 11.7915Z" fill="#FFA900"/>
</svg>
