<svg width="21" height="19" viewBox="0 0 21 19" fill="none" xmlns="http://www.w3.org/2000/svg">
<path fill-rule="evenodd" clip-rule="evenodd" d="M6.44109 2.61945C6.44109 3.63421 5.69112 4.45035 4.76464 4.45035C3.81614 4.45035 3.06619 3.63424 3.08819 2.61945C3.08819 1.89146 3.97051 0.722369 4.45581 0.148872C4.61015 -0.049624 4.91898 -0.049624 5.07347 0.148872C5.55881 0.722369 6.44109 1.8915 6.44109 2.61945ZM17.2721 4.91359C16.9633 5.06808 16.6103 5.15625 16.2354 5.15625C15.8604 5.15625 15.5294 5.06808 15.2206 4.91359V8.20043L11.5147 8.20028V4.91356C11.2059 5.06804 10.8529 5.15621 10.4999 5.15621C10.1469 5.15621 9.77197 5.06804 9.46314 4.91356V8.2004L5.77928 8.20024V4.91352C5.47046 5.06801 5.11747 5.15618 4.7425 5.15618C4.36752 5.15618 4.03653 5.06801 3.72771 4.91352V8.20036C1.65427 8.3547 0.0218621 10.0753 0.0218621 12.1931V12.5019C0.485181 12.5019 0.926323 12.6564 1.32331 12.921L1.87478 13.318C2.31593 13.6268 2.91156 13.6268 3.35274 13.318L3.90422 12.921C4.69835 12.3475 5.77932 12.3475 6.59543 12.921L7.1469 13.318C7.58805 13.6268 8.18368 13.6268 8.62486 13.318L9.17634 12.921C9.97046 12.3475 11.0514 12.3475 11.8675 12.921L12.419 13.318C12.8602 13.6268 13.4558 13.6268 13.897 13.318L14.4485 12.921C15.2426 12.3475 16.3236 12.3475 17.1397 12.921L17.6911 13.318C18.1323 13.6268 18.7279 13.6268 19.1471 13.318L19.6986 12.921C20.0955 12.6342 20.5589 12.5019 21 12.5019V12.1931C20.978 10.0755 19.3456 8.35485 17.2721 8.22242V4.91359ZM19.7207 15.1563C18.9266 15.7298 17.8456 15.7298 17.0295 15.1563L16.478 14.7594C16.0369 14.4505 15.4412 14.4505 15.0001 14.7594L14.4707 15.1563C13.6766 15.7298 12.5956 15.7298 11.7795 15.1563L11.228 14.7594C10.7869 14.4505 10.1913 14.4505 9.75007 14.7594L9.19859 15.1563C8.40447 15.7298 7.32349 15.7298 6.50739 15.1563L5.95591 14.7594C5.51477 14.4505 4.91913 14.4505 4.47795 14.7594L3.92648 15.1563C3.13235 15.7298 2.05138 15.7298 1.23527 15.1563L0.683792 14.7594C0.485296 14.6049 0.24265 14.5387 0 14.5387V17.8402C0 18.3917 0.441142 18.8328 0.992619 18.8328L19.9855 18.833C20.537 18.833 20.9781 18.3919 20.9781 17.8404V14.5389C20.7354 14.5389 20.4928 14.627 20.2721 14.7595L19.7207 15.1563ZM10.5 4.45035C11.4265 4.45035 12.1765 3.63421 12.1765 2.61945C12.1765 1.8915 11.2942 0.722369 10.8088 0.148872C10.6543 -0.049624 10.3455 -0.049624 10.1912 0.148872C9.70587 0.722369 8.82355 1.89146 8.82355 2.61945C8.82355 3.63424 9.57352 4.45035 10.5 4.45035ZM17.9118 2.61945C17.9118 3.63421 17.1618 4.45035 16.2354 4.45035C15.3087 4.45035 14.5588 3.63424 14.5589 2.61945C14.5589 1.89146 15.4412 0.722369 15.9265 0.148872C16.0809 -0.049624 16.3897 -0.049624 16.5442 0.148872C17.0295 0.722369 17.9118 1.8915 17.9118 2.61945Z" fill="#FFA900"/>
</svg>
